<?xml version="1.0" encoding="UTF-8" standalone="no"?>
<svg
   xmlns:dc="http://purl.org/dc/elements/1.1/"
   xmlns:cc="http://creativecommons.org/ns#"
   xmlns:rdf="http://www.w3.org/1999/02/22-rdf-syntax-ns#"
   xmlns:svg="http://www.w3.org/2000/svg"
   xmlns="http://www.w3.org/2000/svg"
   xmlns:sodipodi="http://sodipodi.sourceforge.net/DTD/sodipodi-0.dtd"
   xmlns:inkscape="http://www.inkscape.org/namespaces/inkscape"
   width="210mm"
   height="297mm"
   viewBox="0 0 210 297"
   version="1.1"
   id="svg8"
   inkscape:version="1.0.1 (3bc2e813f5, 2020-09-07)"
   sodipodi:docname="theguptaempire_main_logo.svg"
   inkscape:export-filename="/home/aryan/Projects/tge-logo/theguptaempire_main_logo.png"
   inkscape:export-xdpi="96"
   inkscape:export-ydpi="96">
  <defs
     id="defs2" />
  <sodipodi:namedview
     id="base"
     pagecolor="#ffffff"
     bordercolor="#666666"
     borderopacity="1.0"
     inkscape:pageopacity="0.0"
     inkscape:pageshadow="2"
     inkscape:zoom="1.7045857"
     inkscape:cx="213.15263"
     inkscape:cy="229.86397"
     inkscape:document-units="mm"
     inkscape:current-layer="layer1"
     inkscape:document-rotation="0"
     showgrid="true"
     inkscape:window-width="2802"
     inkscape:window-height="1550"
     inkscape:window-x="3840"
     inkscape:window-y="560"
     inkscape:window-maximized="0">
    <inkscape:grid
       type="xygrid"
       id="grid10" />
  </sodipodi:namedview>
  <metadata
     id="metadata5">
    <rdf:RDF>
      <cc:Work
         rdf:about="">
        <dc:format>image/svg+xml</dc:format>
        <dc:type
           rdf:resource="http://purl.org/dc/dcmitype/StillImage" />
        <dc:title />
      </cc:Work>
    </rdf:RDF>
  </metadata>
  <g
     inkscape:label="Letter G"
     inkscape:groupmode="layer"
     id="layer1">
    <path
       id="path12"
       style="fill:#663399;fill-opacity:1;fill-rule:evenodd;stroke-width:1.34983"
       d="M 282.75 0 A 283.46457 283.46457 0 0 0 0 283.46484 A 283.46457 283.46457 0 0 0 283.46484 566.92969 A 283.46457 283.46457 0 0 0 529.13477 424.88086 L 529.13477 302.36133 L 452.48828 302.36133 L 302.36133 302.36133 L 302.36133 396.84961 L 410.23242 396.84961 A 170.07874 170.07874 0 0 1 283.46484 453.54297 A 170.07874 170.07874 0 0 1 113.38672 283.46484 A 170.07874 170.07874 0 0 1 282.79102 113.38672 A 170.07874 170.07874 0 0 1 283.46484 113.38672 A 170.07874 170.07874 0 0 1 430.75586 198.42578 L 528.95117 141.73047 A 283.46457 283.46457 0 0 0 283.46484 0 A 283.46457 283.46457 0 0 0 282.75 0 z "
       transform="scale(0.26458333)" />
  </g>
  <g
     inkscape:groupmode="layer"
     id="layer2"
     inkscape:label="Letter E">
    <path
       id="rect852"
       style="fill:#ffd700;fill-opacity:1;stroke-width:0.22605"
       d="M -18.591,22.248241 -8.0255327,44.905957 0.42675233,63.031942 113.71533,10.204606 105.26304,-7.9213752 94.697587,-30.579093 74.305738,-21.070221 84.871196,1.5875 58.814683,13.737853 48.249216,-8.9198639 27.857365,0.58901211 38.422833,23.246729 12.366318,35.397081 1.8008513,12.739364 Z" />
    <circle
       style="fill:#ff0000;fill-opacity:1;stroke-width:0.25"
       id="path860"
       cx="-15.001681"
       cy="24.806854"
       r="7.5"
       transform="rotate(-25)" />
    <ellipse
       style="fill:#8dd35f;fill-opacity:1;stroke-width:0.274681"
       id="path862"
       cx="36.247662"
       cy="24.806854"
       rx="6.1803398"
       ry="10"
       transform="rotate(-25)" />
    <circle
       style="fill:#ff0000;fill-opacity:1;stroke-width:0.25"
       id="circle864"
       cx="87.998314"
       cy="24.806854"
       r="7.5"
       transform="rotate(-25)" />
  </g>
</svg>
